<?xml version="1.0" standalone="no"?><!DOCTYPE svg PUBLIC "-//W3C//DTD SVG 1.1//EN" "http://www.w3.org/Graphics/SVG/1.1/DTD/svg11.dtd"><svg t="1764246994279" class="icon" viewBox="0 0 1038 1024" version="1.1" xmlns="http://www.w3.org/2000/svg" p-id="15103" xmlns:xlink="http://www.w3.org/1999/xlink" width="202.734375" height="200"><path d="M920.353753 0H118.185801A118.185801 118.185801 0 0 0 0 118.185801v787.628398a118.185801 118.185801 0 0 0 118.185801 118.185801h802.167952A118.185801 118.185801 0 0 0 1038.539554 905.814199V118.185801A118.185801 118.185801 0 0 0 920.353753 0z" fill="#E7EAEC" p-id="15104"></path><path d="M519.269777 514.492495m-419.777688 0a419.777688 419.777688 0 1 0 839.555376 0 419.777688 419.777688 0 1 0-839.555376 0Z" fill="#C9CBD2" p-id="15105"></path><path d="M920.353753 994.920892H118.185801A118.185801 118.185801 0 0 1 0 876.735091v29.079108a118.185801 118.185801 0 0 0 118.185801 118.185801h802.167952A118.185801 118.185801 0 0 0 1038.539554 905.814199v-29.079108a118.185801 118.185801 0 0 1-118.185801 118.185801z" fill="#979797" p-id="15106"></path><path d="M920.353753 29.079108H118.185801A118.185801 118.185801 0 0 0 0 147.264909v-29.079108A118.185801 118.185801 0 0 1 118.185801 0h802.167952A118.185801 118.185801 0 0 1 1038.539554 118.185801v29.079108a118.185801 118.185801 0 0 0-118.185801-118.185801z" fill="#FFFFFF" p-id="15107"></path><path d="M519.269777 94.714807A419.777688 419.777688 0 0 1 519.269777 934.685598" fill="#E5E5A3" p-id="15108"></path><path d="M99.492089 514.492495A419.777688 419.777688 0 0 1 519.269777 94.714807v419.777688z" fill="#E2A5A3" p-id="15109"></path><path d="M939.047465 514.492495A419.777688 419.777688 0 0 0 519.269777 94.714807v419.777688z" fill="#A2E6B2" p-id="15110"></path><path d="M519.269777 872.373225a358.296146 358.296146 0 1 1 358.296146-357.88073A358.711562 358.711562 0 0 1 519.269777 872.373225z m0-710.984178a353.103448 353.103448 0 1 0 353.103448 353.103448 353.103448 353.103448 0 0 0-353.103448-353.103448z" fill="#4D4D4D" p-id="15111"></path><path d="M519.269777 514.492495m-353.93428 0a353.93428 353.93428 0 1 0 707.86856 0 353.93428 353.93428 0 1 0-707.86856 0Z" fill="#57555E" p-id="15112"></path><path d="M730.093306 455.29574a56.911968 56.911968 0 0 1-8.516024 20.770791q-5.815822 8.308316-9.762272 7.892901a10.800811 10.800811 0 0 1-7.269777-5.815821 52.965517 52.965517 0 0 1-4.98499-19.109128 52.342394 52.342394 0 0 0-14.124138-32.402434 74.774848 74.774848 0 0 0-36.7643-15.370386 105.931034 105.931034 0 0 1-46.111156-20.770791 336.486815 336.486815 0 0 1-33.233266-29.909939c-8.516024-8.100609-14.95497-11.008519-19.732251-8.723732a13.085598 13.085598 0 0 0-6.854361 12.87789v313.431238a98.45355 98.45355 0 0 1-4.361866 31.156186 81.836917 81.836917 0 0 1-19.109128 31.779311 113.823935 113.823935 0 0 1-36.141177 25.75578 149.13428 149.13428 0 0 1-56.288843 12.462475 120.886004 120.886004 0 0 1-62.312374-12.254767 114.031643 114.031643 0 0 1-42.580121-35.102637 76.851927 76.851927 0 0 1-14.747262-46.526572 68.335903 68.335903 0 0 1 20.770791-47.357403 120.055172 120.055172 0 0 1 46.318864-30.740771 166.166329 166.166329 0 0 1 89.52211-6.438945 190.260446 190.260446 0 0 1 27.002028 7.477485V289.544828a42.78783 42.78783 0 0 1 8.723732-27.625153 33.856389 33.856389 0 0 1 23.263286-12.462474 23.678702 23.678702 0 0 1 20.770791 4.777282 92.222312 92.222312 0 0 1 15.99351 18.486004q8.100609 11.839351 20.770791 27.002028a156.196349 156.196349 0 0 0 32.194726 29.702231 156.819473 156.819473 0 0 0 30.533063 19.109128l24.301825 10.800812a167.412576 167.412576 0 0 1 22.432455 11.839351A113.823935 113.823935 0 0 1 713.684381 394.64503a64.59716 64.59716 0 0 1 16.201217 31.363895 81.213793 81.213793 0 0 1 0.207708 29.286815z" fill="#E7EAEC" p-id="15113"></path><path d="M418.946856 782.227992a121.924544 121.924544 0 0 1-55.66572-13.708722 117.147262 117.147262 0 0 1-43.618661-35.933469 79.759838 79.759838 0 0 1-15.162678-47.149696 71.036105 71.036105 0 0 1 22.432455-49.226774A123.170791 123.170791 0 0 1 373.874239 604.845436a167.620284 167.620284 0 0 1 48.811359-9.762272 169.905071 169.905071 0 0 1 41.541583 3.323327 231.802028 231.802028 0 0 1 23.678701 6.231237V289.752535a45.488032 45.488032 0 0 1 10.593104-29.079107 36.556592 36.556592 0 0 1 24.924949-13.501014 25.963489 25.963489 0 0 1 22.017039 5.400405 94.922515 94.922515 0 0 1 16.408925 19.109128c5.608114 8.100609 12.254767 17.032049 20.770791 26.794321a153.703854 153.703854 0 0 0 31.571602 29.079107 155.365517 155.365517 0 0 0 29.909939 18.90142l24.301826 10.800811a169.697363 169.697363 0 0 1 22.640162 12.047059 116.939554 116.939554 0 0 1 24.924949 23.263286 67.712779 67.712779 0 0 1 16.824341 32.610142 85.575659 85.575659 0 0 1 0 30.533063 60.235294 60.235294 0 0 1-8.93144 22.84787c-4.569574 6.646653-8.308316 9.554564-12.462475 8.931441a13.293306 13.293306 0 0 1-9.139148-7.062069 54.419473 54.419473 0 0 1-5.400405-20.770792 50.057606 50.057606 0 0 0-13.91643-31.77931 72.490061 72.490061 0 0 0-35.518053-14.747262 109.046653 109.046653 0 0 1-47.357404-20.770791 341.264097 341.264097 0 0 1-33.648681-30.117647c-7.269777-7.062069-13.085598-9.96998-16.616633-8.100608a10.385396 10.385396 0 0 0-5.400406 10.385395v313.431238a101.569168 101.569168 0 0 1-4.361866 31.571602 84.744828 84.744828 0 0 1-19.109128 33.233266 117.147262 117.147262 0 0 1-37.387424 25.755781 152.457606 152.457606 0 0 1-57.119675 12.670182z m12.254767-181.744422h-7.685193a162.219878 162.219878 0 0 0-47.357404 9.346856 117.978093 117.978093 0 0 0-45.280324 30.117647 66.051116 66.051116 0 0 0-20.770791 45.488032 74.359432 74.359432 0 0 0 14.331846 44.864909 112.162272 112.162272 0 0 0 41.541582 34.271805 119.224341 119.224341 0 0 0 60.443002 11.839351 147.057201 147.057201 0 0 0 55.250304-12.254766 111.539148 111.539148 0 0 0 35.310345-25.132658 79.55213 79.55213 0 0 0 17.86288-31.156186 96.584178 96.584178 0 0 0 4.154158-30.117647V363.488844a15.578093 15.578093 0 0 1 8.516025-15.162678c5.815822-2.907911 13.293306 0 22.640162 9.139148a333.578905 333.578905 0 0 0 33.233266 29.702232 103.853955 103.853955 0 0 0 44.864908 20.770791 77.682759 77.682759 0 0 1 38.010548 15.993509 55.250304 55.250304 0 0 1 15.578093 35.102637 48.811359 48.811359 0 0 0 4.361867 18.693712 8.308316 8.308316 0 0 0 5.400405 4.569574s2.700203 0 7.269777-6.646653a54.419473 54.419473 0 0 0 7.892901-20.770791 79.967546 79.967546 0 0 0 0-28.663692 62.312373 62.312373 0 0 0-15.578094-30.117647A112.36998 112.36998 0 0 0 687.9286 373.874239a166.166329 166.166329 0 0 0-22.017038-11.631643l-24.301826-10.800811A160.142799 160.142799 0 0 1 610.661258 332.332657a158.896552 158.896552 0 0 1-32.610142-30.117647c-7.685193-9.762272-14.539554-18.90142-20.770791-27.209736a90.768357 90.768357 0 0 0-15.578094-18.070588 20.770791 20.770791 0 0 0-17.86288-4.154159 31.156187 31.156187 0 0 0-20.770791 11.423935 40.295335 40.295335 0 0 0-8.100609 26.586613v322.778093l-3.738742-1.453955a188.183367 188.183367 0 0 0-26.586613-7.477485 155.157809 155.157809 0 0 0-33.648681-4.154158z" fill="#6B6A6A" p-id="15114"></path><path d="M364.942799 624.993103a89.52211 89.52211 0 0 0-20.770791 13.501015 5.192698 5.192698 0 0 0 0 6.854361 4.361866 4.361866 0 0 0 6.231237 0 159.311968 159.311968 0 0 1 95.130224-30.325355 4.154158 4.154158 0 0 0 3.531034-5.192698 5.400406 5.400406 0 0 0-5.192698-4.569574 204.8 204.8 0 0 0-78.929006 19.732251z" fill="#FFFFFF" p-id="15115"></path></svg>