<?xml version="1.0" standalone="no"?><!DOCTYPE svg PUBLIC "-//W3C//DTD SVG 1.1//EN" "http://www.w3.org/Graphics/SVG/1.1/DTD/svg11.dtd"><svg t="1764246621818" class="icon" viewBox="0 0 1365 1024" version="1.1" xmlns="http://www.w3.org/2000/svg" p-id="11339" xmlns:xlink="http://www.w3.org/1999/xlink" width="266.6015625" height="200"><path d="M814.623 803.033V477.96l190.2-31.046c-30.301-161.62-171.194-283.88-340.558-283.88-191.457 0-346.655 156.221-346.655 348.966 0 192.73 155.198 348.967 346.655 348.967 18.572 0 36.786-1.52 54.567-4.344 13.901-23.257 38.88-41.922 70.578-49.897a125.874 125.874 0 0 1 25.212-3.692z m-86.668-611.53l-37.127 163.809h-37.144l-26.53-163.809c38.911-19.596 100.801 0 100.801 0z m-63.689 450.049c-71.075 0-128.698-58.011-128.698-129.552 0-71.556 57.623-129.567 128.698-129.567 71.09 0 128.698 58.011 128.698 129.567 0 71.54-57.608 129.552-128.698 129.552z m0-228.336c-54.117 0-98.118 44.296-98.118 98.785 0 54.474 44.001 98.785 98.118 98.785 54.132 0 98.133-44.311 98.133-98.785 0-54.49-44-98.785-98.133-98.785z m0 169.332c-38.648 0-70.082-31.65-70.082-70.547 0-38.912 31.45-70.563 70.082-70.563 38.664 0 70.082 31.65 70.082 70.563 0 38.896-31.418 70.547-70.082 70.547z m44.389 334.274c1.691 9.387 5.384 18.106 10.705 25.926a430.39 430.39 0 0 1-55.078 3.661c-237.957 0-431.555-194.871-431.555-434.409 0-239.538 193.598-434.424 431.539-434.424 211.223 0 387.382 153.616 424.308 355.669l-41.89 6.842c-33.654-181.744-192.265-319.783-382.418-319.783-214.544 0-389.089 175.71-389.089 391.696 0 215.971 174.545 391.68 389.089 391.68 14.367 0 28.548-0.838 42.512-2.374 0.124 5.151 0.682 10.333 1.877 15.515z m423.955-460.149v376.646c0 31.186-23.102 56.072-59.128 65.241-39.564 9.868-77.762-6.81-85.334-37.33-7.586-30.58 18.324-63.363 57.872-73.34 17.873-4.437 35.468-3.537 50.176 1.692V562.657l-202.271 37.22-0.93 282.299h-0.047c-0.171 26.732-24.111 52.984-58.57 61.564-39.083 9.899-80.027-8.828-84.418-36.849-7.525-30.239 18.106-62.696 57.266-72.564 17.626-4.422 34.847-3.537 49.323 1.567v-334.15l276.061-45.071z" fill="#515151" p-id="11340"></path></svg>